<?xml version="1.0" encoding="UTF-8"?>
<svg width="300" height="300" viewBox="0 0 300 300" xmlns="http://www.w3.org/2000/svg">
  
          <rect x="11" y="23" width="93" height="63" 
                fill="#fa72ad" opacity="0.3244124848538482" 
                transform="rotate(311 143 66)"/>
        
          <rect x="178" y="94" width="70" height="54" 
                fill="#c5c853" opacity="0.5073123908399888" 
                transform="rotate(190 90 204)"/>
        
          <rect x="34" y="161" width="39" height="76" 
                fill="#4f73fb" opacity="0.9830231484178362" 
                transform="rotate(17 160 85)"/>
        
          <rect x="44" y="123" width="98" height="81" 
                fill="#865667" opacity="0.7580968170181832" 
                transform="rotate(53 148 169)"/>
        
          <rect x="30" y="119" width="100" height="40" 
                fill="#11c8ef" opacity="0.9524273866587993" 
                transform="rotate(332 53 77)"/>
        
          <rect x="92" y="172" width="53" height="68" 
                fill="#05d3ff" opacity="0.3196822394132054" 
                transform="rotate(106 241 188)"/>
        
          <rect x="55" y="157" width="61" height="74" 
                fill="#2b4fcb" opacity="0.9099289648976459" 
                transform="rotate(215 139 118)"/>
        
          <rect x="90" y="176" width="80" height="51" 
                fill="#ddd4f3" opacity="0.6610997275102641" 
                transform="rotate(280 165 169)"/>
        
          <rect x="33" y="170" width="47" height="53" 
                fill="#acab72" opacity="0.6491861048486218" 
                transform="rotate(157 88 169)"/>
        
</svg>