<?xml version="1.0" encoding="UTF-8"?>
<svg width="300" height="300" viewBox="0 0 300 300" xmlns="http://www.w3.org/2000/svg">
  
          <polygon points="300,161 277,225 150,115 47,34 228,225" fill="#923ee3" 
                   opacity="0.6004913778444321"/>
        
          <polygon points="97,108 79,165 125,149 292,83 213,47 145,284" fill="#ebdb7f" 
                   opacity="0.41337477452225335"/>
        
          <polygon points="84,152 83,295 89,142 269,168" fill="#ff9534" 
                   opacity="0.90149037476642"/>
        
          <polygon points="221,196 90,78 3,282 296,149 131,224" fill="#1cd07f" 
                   opacity="0.9340208752166925"/>
        
          <polygon points="35,26 282,211 229,89 2,290 284,205" fill="#f0a83c" 
                   opacity="0.4385919924552286"/>
        
          <polygon points="215,8 240,176 31,216 38,37 233,258" fill="#f35fa8" 
                   opacity="0.3990674418707223"/>
        
</svg>